# xmcd
#
# Track frame offsets:
#	150
#	17790
#	36360
#	53556
#	67367
#	83362
#	100066
#	117757
#	136315
#	153507
#	167328
#	183298
#
# Disc length: 2667 seconds
#
# Revision: 1
# Processed by: cddbd v1.5.2PL0 Copyright (c) Steve Scherf et al.
# Submitted via: audiograbber 1.83.01
#
DISCID=910a690c
DTITLE=Taylor Swift - CB20615
DYEAR=1900
DGENRE=Karaoke
TTITLE0=Taylor Swift - Should've Said No (Vocals)
TTITLE1=Taylor Swift - Tim McGraw (Vocals)
TTITLE2=Taylor Swift - Teardrops On My Guitar (Vocals)
TTITLE3=Taylor Swift - Picture To Burn (Vocals)
TTITLE4=Taylor Swift - Our Song (Vocals)
TTITLE5=Taylor Swift - I'm Only Me With You (Vocals)
TTITLE6=Taylor Swift - Should've Said No
TTITLE7=Taylor Swift - Tim McGraw
TTITLE8=Taylor Swift - Teardrops On My Guitar
TTITLE9=Taylor Swift - Picture To Burn
TTITLE10=Taylor Swift - Our Song
TTITLE11=Taylor Swift - I'm Only Me With You
EXTD=
EXTT0=
EXTT1=
EXTT2=
EXTT3=
EXTT4=
EXTT5=
EXTT6=
EXTT7=
EXTT8=
EXTT9=
EXTT10=
EXTT11=
PLAYORDER=
